<svg width="40" height="40" viewBox="0 0 40 40" fill="none" xmlns="http://www.w3.org/2000/svg">
<path fill-rule="evenodd" clip-rule="evenodd" d="M31.8278 5L33.4118 6.58395L29.6378 10.3579L29.6436 10.3608L28.1437 11.8607L28.1378 11.8579L25.6547 14.341C25.6561 14.3424 25.6576 14.3439 25.659 14.3453L24.2448 15.7595C24.2434 15.7581 24.2419 15.7566 24.2405 15.7552L15.7552 24.2405C15.7566 24.2419 15.7581 24.2434 15.7595 24.2448L14.3453 25.659C14.3439 25.6576 14.3424 25.6561 14.341 25.6547L11.8563 28.1393L11.8622 28.142L10.3622 29.6421L10.3564 29.6392L6.58395 33.4117L5 31.8277L8.31932 28.5084C7.74444 28.1536 7.19759 27.7842 6.68156 27.4066C4.9888 26.168 3.60103 24.8218 2.62579 23.5705C2.13842 22.9452 1.74205 22.3282 1.4636 21.7461C1.19146 21.1772 1 20.5757 1 20C1 19.4243 1.19146 18.8228 1.4636 18.2539C1.74205 17.6718 2.13842 17.0548 2.62579 16.4295C3.60103 15.1782 4.9888 13.832 6.68156 12.5934C10.0613 10.1203 14.7636 8 20 8C22.6473 8 25.1581 8.54192 27.4304 9.39737L31.8278 5ZM14.4777 22.3501L22.3501 14.4777C21.6284 14.1702 20.8341 14 20 14C16.6863 14 14 16.6863 14 20C14 20.834 14.1702 21.6283 14.4777 22.3501ZM23.8449 12.9829C22.7039 12.3563 21.3936 12 20 12C15.5817 12 12 15.5817 12 20C12 21.3936 12.3563 22.7039 12.9828 23.8449L9.77599 27.0518C9.09946 26.6529 8.45992 26.2297 7.86259 25.7926C6.29799 24.6477 5.04973 23.4272 4.20327 22.3411C3.77979 21.7977 3.46889 21.3034 3.26779 20.883C3.06038 20.4494 3 20.1573 3 20C3 19.8426 3.06038 19.5506 3.26779 19.117C3.46889 18.6966 3.77979 18.2023 4.20327 17.6589C5.04973 16.5728 6.29799 15.3523 7.86259 14.2074C10.9976 11.9135 15.2953 10 20 10C22.0525 10 24.0276 10.3642 25.8625 10.9653L23.8449 12.9829ZM14.1375 29.0347C15.9724 29.6358 17.9475 30 20 30C24.7047 30 29.0024 28.0865 32.1374 25.7926C33.702 24.6477 34.9503 23.4272 35.7967 22.3411C36.2202 21.7977 36.5311 21.3034 36.7322 20.883C36.9396 20.4494 37 20.1573 37 20C37 19.8426 36.9396 19.5506 36.7322 19.117C36.5311 18.6966 36.2202 18.2023 35.7967 17.6589C34.9503 16.5728 33.702 15.3523 32.1374 14.2074C31.5401 13.7703 30.9005 13.3471 30.224 12.9482L31.6807 11.4916C32.2556 11.8464 32.8024 12.2158 33.3184 12.5934C35.0112 13.832 36.399 15.1782 37.3742 16.4295C37.8616 17.0548 38.2579 17.6718 38.5364 18.2539C38.8085 18.8228 39 19.4243 39 20C39 20.5757 38.8085 21.1772 38.5364 21.7461C38.2579 22.3282 37.8616 22.9452 37.3742 23.5705C36.399 24.8218 35.0112 26.168 33.3184 27.4066C29.9387 29.8797 25.2364 32 20 32C17.3527 32 14.8419 31.4581 12.5696 30.6026L14.1375 29.0347ZM20 26C19.1659 26 18.3716 25.8298 17.6499 25.5223L16.155 27.0171C17.296 27.6437 18.6064 28 20 28C24.4183 28 28 24.4183 28 20C28 18.6064 27.6437 17.2961 27.0172 16.1551L25.5223 17.6499C25.8298 18.3717 26 19.166 26 20C26 23.3137 23.3137 26 20 26Z" fill="black"/>
</svg>
