<svg width="20" height="20" viewBox="0 0 20 20" fill="none" xmlns="http://www.w3.org/2000/svg">
<path d="M10.9049 12.9372H8.96578C8.96071 12.6401 8.95817 12.4591 8.95817 12.3943C8.95817 11.7245 9.0621 11.1735 9.26996 10.7414C9.47782 10.3093 9.89354 9.82309 10.5171 9.28292C11.1407 8.74274 11.5133 8.38893 11.635 8.22147C11.8226 7.95679 11.9163 7.66509 11.9163 7.34639C11.9163 6.90344 11.749 6.52532 11.4144 6.21202C11.0849 5.89332 10.6388 5.73396 10.076 5.73396C9.53359 5.73396 9.07985 5.89872 8.71483 6.22822C8.34981 6.55773 8.09886 7.06009 7.96198 7.73531L6 7.47603C6.05577 6.50912 6.44106 5.68805 7.15589 5.01283C7.87579 4.33761 8.81876 4 9.98479 4C11.2117 4 12.1876 4.34301 12.9125 5.02903C13.6375 5.70966 14 6.50371 14 7.41121C14 7.91357 13.8657 8.38893 13.597 8.83727C13.3333 9.28562 12.7655 9.89602 11.8935 10.6685C11.4423 11.0682 11.161 11.3896 11.0494 11.6327C10.943 11.8758 10.8948 12.3106 10.9049 12.9372ZM8.96578 16V13.7232H11.1027V16H8.96578Z" fill="#0089E7"/>
<circle cx="10" cy="10" r="9" stroke="#0089E7" stroke-width="2"/>
</svg>
