<svg width="20" height="20" viewBox="0 0 20 20" xmlns="http://www.w3.org/2000/svg">
<path fill-rule="evenodd" clip-rule="evenodd" d="M20 14.5679H18.7654V18.0247C18.7654 18.4338 18.4338 18.7654 18.0247 18.7654H14.5679V20L18.0247 20C19.1156 20 20 19.1156 20 18.0247V14.5679ZM11.1111 16.5432L11.1111 13.0864C11.1111 11.9955 11.9955 11.1111 13.0864 11.1111H16.5432V12.3457H13.0864C12.6773 12.3457 12.3457 12.6773 12.3457 13.0864V16.5432H11.1111Z" fill="white"/>
<path fill-rule="evenodd" clip-rule="evenodd" d="M6.91358 1.23457H1.97531C1.56621 1.23457 1.23457 1.56621 1.23457 1.97531V6.91358C1.23457 7.32268 1.56621 7.65432 1.97531 7.65432H6.91358C7.32268 7.65432 7.65432 7.32268 7.65432 6.91358V1.97531C7.65432 1.56621 7.32268 1.23457 6.91358 1.23457ZM1.97531 0H6.91358C8.00451 0 8.88889 0.884376 8.88889 1.97531V6.91358C8.88889 8.00451 8.00451 8.88889 6.91358 8.88889H1.97531C0.884376 8.88889 0 8.00451 0 6.91358V1.97531C0 0.884376 0.884376 0 1.97531 0Z" fill="white"/>
<path d="M5.4321 3.45679H3.45679V5.4321H5.4321V3.45679Z" fill="white"/>
<path d="M5.4321 14.5679H3.45679V16.5432H5.4321V14.5679Z" fill="white"/>
<path d="M16.5432 14.5679H14.5679V16.5432H16.5432V14.5679Z" fill="white"/>
<path d="M13.0864 18.0247H11.1111V20H13.0864V18.0247Z" fill="white"/>
<path d="M20 11.1111H18.0247V13.0864H20V11.1111Z" fill="white"/>
<path d="M16.5432 3.45679H14.5679V5.4321H16.5432V3.45679Z" fill="white"/>
<path fill-rule="evenodd" clip-rule="evenodd" d="M6.91358 12.3457H1.97531C1.56621 12.3457 1.23457 12.6773 1.23457 13.0864V18.0247C1.23457 18.4338 1.56621 18.7654 1.97531 18.7654H6.91358C7.32268 18.7654 7.65432 18.4338 7.65432 18.0247V13.0864C7.65432 12.6773 7.32268 12.3457 6.91358 12.3457ZM1.97531 11.1111H6.91358C8.00451 11.1111 8.88889 11.9955 8.88889 13.0864V18.0247C8.88889 19.1156 8.00451 20 6.91358 20H1.97531C0.884376 20 0 19.1156 0 18.0247V13.0864C0 11.9955 0.884376 11.1111 1.97531 11.1111Z" fill="white"/>
<path fill-rule="evenodd" clip-rule="evenodd" d="M18.0247 1.23457H13.0864C12.6773 1.23457 12.3457 1.56621 12.3457 1.97531V6.91358C12.3457 7.32268 12.6773 7.65432 13.0864 7.65432H18.0247C18.4338 7.65432 18.7654 7.32268 18.7654 6.91358V1.97531C18.7654 1.56621 18.4338 1.23457 18.0247 1.23457ZM13.0864 0H18.0247C19.1156 0 20 0.884376 20 1.97531V6.91358C20 8.00451 19.1156 8.88889 18.0247 8.88889H13.0864C11.9955 8.88889 11.1111 8.00451 11.1111 6.91358V1.97531C11.1111 0.884376 11.9955 0 13.0864 0Z" fill="white"/>
</svg>
