<svg width="32" height="32" viewBox="0 0 40 40" fill="none" xmlns="http://www.w3.org/2000/svg">
<rect x="2" y="2" width="36" height="36" rx="18" fill="#082E3D"/>
<path fill-rule="evenodd" clip-rule="evenodd" d="M20.9489 24.5954C20.8526 24.976 20.5084 25.2576 20.0985 25.2576C19.6885 25.2576 19.3443 24.976 19.2481 24.5954L16.7438 14.6532C16.3637 13.1307 14.9862 12 13.3501 12C11.4212 12 9.85191 13.5714 9.85191 15.5031V16.2935C9.85191 17.0261 10.4448 17.6199 11.1763 17.6199C11.9077 17.6199 12.5006 17.0261 12.5006 16.2935V15.5031C12.5006 15.0343 12.8816 14.6528 13.3501 14.6528C13.7477 14.6528 14.0828 14.9279 14.1745 15.2984L16.7167 25.3939C17.1138 26.8921 18.4794 27.9998 20.0985 27.9998C21.7176 27.9998 23.0831 26.8921 23.4799 25.3939L26.0225 15.2984C26.1142 14.9279 26.4489 14.6528 26.8468 14.6528C27.3149 14.6528 27.6959 15.0343 27.6959 15.5031V26.673C27.6959 27.4059 28.2888 27.9998 29.0202 27.9998C29.7517 27.9998 30.3446 27.4059 30.3446 26.673V15.5031C30.3446 13.5714 28.7757 12 26.8468 12C25.2107 12 23.8332 13.1307 23.4527 14.6532L20.9489 24.5954Z" fill="white"/>
<path fill-rule="evenodd" clip-rule="evenodd" d="M12.5006 26.6732C12.5006 27.4061 11.9077 27.9999 11.1763 27.9999C10.4448 27.9999 9.85187 27.4061 9.85187 26.6732V23.7064C9.85187 22.9738 10.4448 22.38 11.1763 22.38C11.9077 22.38 12.5006 22.9738 12.5006 23.7064V26.6732Z" fill="white"/>
<path fill-rule="evenodd" clip-rule="evenodd" d="M10.2695 19.0918C10.4332 18.9279 10.5741 18.7934 10.6937 18.6837L10.7058 18.6727C10.9717 18.432 11.3771 18.431 11.6439 18.67L11.6575 18.6823C11.7773 18.7922 11.9187 18.9272 12.0831 19.0918L12.0857 19.0943C12.2488 19.2578 12.3827 19.3986 12.4919 19.518L12.5041 19.5316C12.7428 19.7989 12.742 20.2049 12.5016 20.4711L12.4905 20.4832C12.3809 20.603 12.2466 20.7442 12.083 20.9081L12.0803 20.9108C11.9177 21.0735 11.7777 21.2071 11.6588 21.3162L11.6467 21.3273C11.3809 21.568 10.9755 21.5689 10.7086 21.3299L10.6951 21.3176C10.5758 21.2082 10.4352 21.0742 10.2719 20.9107L10.2694 20.9082C10.1051 20.7436 9.97031 20.6019 9.86054 20.4819L9.84831 20.4683C9.60971 20.201 9.61054 19.795 9.85092 19.5289L9.86193 19.5167C9.97098 19.3975 10.1045 19.2571 10.2672 19.0941L10.2695 19.0918Z" fill="#FFC400"/>
</svg>
