<svg width="42" height="32" viewBox="0 0 42 32" fill="none" xmlns="http://www.w3.org/2000/svg">
<path fill-rule="evenodd" clip-rule="evenodd" d="M6.90051 4.5459C8.11613 4.19969 9.34429 4.00622 10.5844 4.00014C11.8246 3.99413 13.0767 4.1757 14.3404 4.58017C14.5198 4.63642 14.6694 4.76195 14.756 4.92886C14.8426 5.09578 14.8591 5.29034 14.8018 5.46943C14.7445 5.64853 14.6182 5.79744 14.4508 5.8831C14.2833 5.96876 14.0887 5.98419 13.9099 5.92585C11.6605 5.20589 9.50797 5.27244 7.28761 5.90487C7.10737 5.9564 6.91402 5.93413 6.75017 5.84302C6.58632 5.75192 6.46539 5.59946 6.41404 5.41915C6.36264 5.23881 6.38506 5.04551 6.47633 4.88171C6.56753 4.71797 6.72012 4.59714 6.90051 4.5459ZM10.4614 6.38949C6.96545 6.38949 4.29182 8.20701 4.29182 8.20701C4.13587 8.31135 4.0278 8.47343 3.99146 8.65751C3.9551 8.8416 3.99348 9.03259 4.09819 9.18834C4.20285 9.34407 4.36515 9.45177 4.54934 9.48769C4.73351 9.52362 4.92442 9.48475 5.07989 9.37971C5.07989 9.37971 7.45742 7.80225 10.4614 7.80225C13.69 7.80225 16.2843 9.44648 16.2843 9.44648C16.442 9.54767 16.6334 9.58204 16.8165 9.54207C16.9995 9.50209 17.1592 9.39104 17.2604 9.23333C17.3616 9.07566 17.3959 8.88424 17.3559 8.70116C17.316 8.51811 17.2049 8.35842 17.0472 8.25723C17.0472 8.25723 14.167 6.38949 10.4614 6.38949ZM10.6857 8.93482C10.5762 8.93342 10.4662 8.9347 10.3562 8.93736C7.27544 9.00933 4.01547 10.4219 1.41554 13.7752C1.29951 13.9232 1.24727 14.1114 1.27037 14.298C1.29349 14.4846 1.39003 14.6543 1.53867 14.7695C1.6873 14.8847 1.87575 14.9359 2.06222 14.9118C2.24871 14.8876 2.41789 14.7901 2.53227 14.6408C5.24336 11.144 8.52019 10.0947 11.5237 10.3926C12.923 10.5314 14.2615 10.9794 15.4317 11.6312L16.1357 10.3926C14.7988 9.64757 13.2728 9.14642 11.663 8.98673C11.3403 8.95473 11.0142 8.93725 10.6857 8.93482ZM4.03575 14.7338C5.58332 12.7732 7.92457 11.4347 10.5913 11.397C11.4802 11.3844 12.4052 11.5164 13.3491 11.8181L13.3572 11.8209L13.3652 11.8236C14.0321 12.0544 14.6716 12.3818 15.265 12.7855L14.8845 14.2775C14.2737 13.7896 13.6001 13.4015 12.9111 13.1618C9.69225 12.137 6.90269 13.3818 5.14473 15.609C3.38521 17.8381 2.75213 21.0301 4.02198 23.8276C4.10197 23.9986 4.11025 24.1944 4.04493 24.3716C3.97959 24.5486 3.84612 24.6922 3.67422 24.7703C3.50237 24.8484 3.30639 24.8543 3.13005 24.787C2.95371 24.7196 2.81164 24.5845 2.7356 24.4117C1.22707 21.0885 1.97239 17.3479 4.03575 14.7338ZM14.8845 21.8373C15.0917 21.9925 15.5015 22.0864 15.9344 22.0313L16.9967 23.2098C16.714 23.3216 16.415 23.3946 16.1126 23.433C15.4054 23.5229 14.648 23.425 14.0376 22.9681C13.2042 22.3441 12.9193 21.4008 12.6648 20.5577C12.6133 20.3873 12.5631 20.221 12.5098 20.0623C12.3515 19.5902 12.1799 19.1747 11.9734 18.8843C11.767 18.5939 11.5571 18.4211 11.1953 18.3242C9.91795 17.9819 8.9877 18.8105 8.78698 19.6417C8.142 22.3133 10.2691 25.8651 13.6417 26.8358C13.8247 26.885 13.9803 27.0057 14.0735 27.1707C14.1667 27.3357 14.1896 27.5312 14.1372 27.7134C14.0847 27.8955 13.9614 28.0489 13.7947 28.1392C13.6281 28.2294 13.4322 28.249 13.251 28.1933C9.17081 27.019 6.54831 22.895 7.41371 19.3103C7.80069 17.7075 9.55215 16.4214 11.5612 16.9597C12.2514 17.1446 12.7765 17.5759 13.1249 18.0659C13.4733 18.5559 13.6762 19.0974 13.8492 19.6131L13.9013 19.7685C14.2239 20.7326 14.4964 21.5467 14.8845 21.8373ZM10.529 14.2512C10.3521 14.2481 10.1781 14.2536 10.007 14.2669C7.61046 14.4542 5.78297 16.2052 5.04378 18.1451C3.82945 21.332 5.3165 24.732 7.5826 27.6368C7.69607 27.7895 7.86632 27.8899 8.05483 27.9154C8.24333 27.9409 8.43414 27.8892 8.5841 27.7723C8.73407 27.6553 8.83051 27.4827 8.85159 27.2937C8.87272 27.1047 8.81669 26.9151 8.69623 26.7679C6.57482 24.0486 5.40963 21.1529 6.36411 18.6481C7.01192 16.948 8.70499 15.4419 10.9089 15.6905C12.9955 15.9258 14.9125 17.3124 15.2832 20.0018L14.7768 16C13.747 15.022 12.4221 14.4393 11.0673 14.2865C10.8853 14.266 10.7058 14.2543 10.529 14.2512ZM10.5452 19.5792C10.3458 19.5828 10.1571 19.6706 10.0259 19.8207C9.89464 19.971 9.83299 20.1697 9.85626 20.3678C10.0748 22.4903 11.1579 24.3597 12.8048 25.3674C14.4518 26.3751 16.6704 26.4324 18.8201 25.0672L18.0626 23.8746C16.2785 25.0076 14.7541 24.9035 13.5424 24.1621C12.3307 23.4207 11.4397 21.9532 11.2616 20.2233C11.2288 19.8538 10.916 19.5726 10.5452 19.5792Z" fill="black"/>
<path d="M40.0317 16C40.0317 22.9772 34.3755 28.6333 27.3983 28.6333C20.4211 28.6333 14.765 22.9772 14.765 16C14.765 9.02276 20.4211 3.36663 27.3983 3.36663C34.3755 3.36663 40.0317 9.02276 40.0317 16Z" stroke="black" stroke-width="1.4"/>
<path d="M23.5984 21.1666C23.5984 21.1666 24.5984 23 27.4317 23C30.265 23 31.265 21.1666 31.265 21.1666" stroke="black" stroke-width="1.4" stroke-linecap="round"/>
<path d="M28.1588 12.4948V16.7328C28.1588 16.7328 28.1554 18.6445 26.2773 18.6445" stroke="black" stroke-width="1.4" stroke-linecap="round"/>
<path d="M22.1983 12.5333V14.6667" stroke="black" stroke-width="1.4" stroke-linecap="round"/>
<path d="M33.1316 12.5333V14.6667" stroke="black" stroke-width="1.4" stroke-linecap="round"/>
</svg>
