<svg width="28" height="28" viewBox="0 0 28 28" fill="none" xmlns="http://www.w3.org/2000/svg">
<path d="M27.0211 14.253C27.0211 13.1441 26.9323 12.3349 26.7401 11.4957H14.2435V16.5008H21.5787C21.4309 17.7446 20.6323 19.6178 18.8576 20.8765L18.8327 21.0441L22.7839 24.1457L23.0577 24.1734C25.5717 21.8206 27.0211 18.359 27.0211 14.253Z" fill="#4285F4"/>
<path d="M14.2435 27.4404C17.8371 27.4404 20.854 26.2415 23.0576 24.1736L18.8576 20.8767C17.7337 21.671 16.2252 22.2254 14.2435 22.2254C10.7238 22.2254 7.73644 19.8728 6.67154 16.621L6.51545 16.6344L2.40694 19.8563L2.35321 20.0076C4.54194 24.4133 9.03777 27.4404 14.2435 27.4404Z" fill="#34A853"/>
<path d="M6.67168 16.6205C6.3907 15.7814 6.22808 14.8822 6.22808 13.9531C6.22808 13.024 6.3907 12.1249 6.6569 11.2857L6.64945 11.107L2.48946 7.83337L2.35335 7.89897C1.45127 9.72721 0.933655 11.7803 0.933655 13.9531C0.933655 16.126 1.45127 18.1789 2.35335 20.0072L6.67168 16.6205Z" fill="#FBBC05"/>
<path d="M14.2435 5.68143C16.7428 5.68143 18.4287 6.77536 19.39 7.68953L23.1463 3.97313C20.8393 1.80026 17.8371 0.466553 14.2435 0.466553C9.03777 0.466553 4.54194 3.49358 2.35321 7.89925L6.65675 11.286C7.73644 8.03417 10.7238 5.68143 14.2435 5.68143Z" fill="#EB4335"/>
</svg>
