<svg width="28" height="28" viewBox="0 0 28 28" fill="none" xmlns="http://www.w3.org/2000/svg">
<g style="mix-blend-mode:hard-light">
<path fill-rule="evenodd" clip-rule="evenodd" d="M24.7304 21.5595C24.3282 22.5051 23.8522 23.3756 23.3006 24.1759C22.5488 25.2669 21.9333 26.022 21.4589 26.4414C20.7235 27.1297 19.9356 27.4823 19.0918 27.5023C18.4861 27.5023 17.7556 27.3269 16.9053 26.971C16.0522 26.6168 15.2683 26.4414 14.5514 26.4414C13.7996 26.4414 12.9933 26.6168 12.1308 26.971C11.2671 27.3269 10.5712 27.5123 10.0392 27.5307C9.23014 27.5658 8.42367 27.2032 7.61867 26.4414C7.10488 25.9853 6.46223 25.2034 5.69236 24.0957C4.86636 22.9128 4.18727 21.5411 3.65525 19.9773C3.08549 18.2882 2.79987 16.6526 2.79987 15.0691C2.79987 13.2551 3.18496 11.6907 3.95631 10.3797C4.56252 9.32659 5.36899 8.4959 6.37835 7.88609C7.38771 7.27627 8.47833 6.96551 9.65283 6.94563C10.2955 6.94563 11.1382 7.14796 12.1855 7.54559C13.2298 7.94456 13.9004 8.14689 14.1944 8.14689C14.4142 8.14689 15.1591 7.91031 16.4219 7.43866C17.6161 7.00127 18.624 6.82016 19.4497 6.8915C21.687 7.07528 23.3679 7.97296 24.4858 9.59023C22.4848 10.8242 21.495 12.5526 21.5147 14.7698C21.5327 16.4969 22.1483 17.934 23.3581 19.0751C23.9064 19.6048 24.5186 20.0141 25.1999 20.3048C25.0521 20.7409 24.8962 21.1585 24.7304 21.5595ZM19.5991 1.00804C19.5991 2.36168 19.1132 3.62557 18.1447 4.79542C16.9759 6.18613 15.5623 6.98976 14.0293 6.86295C14.0097 6.70055 13.9984 6.52964 13.9984 6.35003C13.9984 5.05054 14.5542 3.65982 15.5413 2.52272C16.034 1.94699 16.6608 1.46827 17.4208 1.08639C18.1792 0.710212 18.8965 0.502173 19.5712 0.466553C19.5909 0.64751 19.5991 0.828483 19.5991 1.00802V1.00804Z" fill="white"/>
</g>
</svg>
