<svg width="128" height="96" viewBox="0 0 128 96" fill="none" xmlns="http://www.w3.org/2000/svg">
  <path
    fill-rule="evenodd"
    clip-rule="evenodd"
    d="M21.9065 13.6377C25.5533 12.5991 29.2378 12.0187 32.9583 12.0004C36.6786 11.9824 40.435 12.5271 44.2261 13.7405C44.7644 13.9093 45.2132 14.2859 45.4729 14.7866C45.7327 15.2873 45.7822 15.871 45.6103 16.4083C45.4385 16.9456 45.0595 17.3923 44.5572 17.6493C44.055 17.9063 43.471 17.9526 42.9347 17.7775C36.1865 15.6177 29.7289 15.8173 23.0678 17.7146C22.5271 17.8692 21.947 17.8024 21.4555 17.5291C20.9639 17.2558 20.6011 16.7984 20.4471 16.2574C20.2929 15.7164 20.3601 15.1365 20.634 14.6451C20.9075 14.1539 21.3653 13.7914 21.9065 13.6377ZM32.589 19.1685C22.1013 19.1685 14.0804 24.621 14.0804 24.621C13.6126 24.934 13.2884 25.4203 13.1793 25.9725C13.0703 26.5248 13.1854 27.0978 13.4995 27.565C13.8135 28.0322 14.3004 28.3553 14.853 28.4631C15.4055 28.5709 15.9782 28.4543 16.4446 28.1391C16.4446 28.1391 23.5772 23.4067 32.589 23.4067C42.275 23.4067 50.0578 28.3394 50.0578 28.3394C50.5309 28.643 51.1053 28.7461 51.6544 28.6262C52.2036 28.5063 52.6827 28.1731 52.986 27.7C53.2896 27.227 53.3927 26.6527 53.2728 26.1035C53.1529 25.5543 52.8197 25.0753 52.3466 24.7717C52.3466 24.7717 43.706 19.1685 32.589 19.1685ZM33.262 26.8045C32.9335 26.8002 32.6037 26.8041 32.2737 26.8121C23.0313 27.028 13.2514 31.2656 5.45157 41.3257C5.10349 41.7697 4.94676 42.3341 5.01607 42.894C5.08542 43.4537 5.37504 43.9629 5.82096 44.3085C6.26687 44.654 6.83222 44.8078 7.39163 44.7353C7.95108 44.6627 8.45864 44.3702 8.80175 43.9225C16.935 33.432 26.7655 30.2841 35.7759 31.1778C39.9739 31.5943 43.9893 32.9382 47.5 34.8935L49.6121 31.1778C45.6013 28.9427 41.0235 27.4393 36.194 26.9602C35.2258 26.8642 34.2477 26.8118 33.262 26.8045ZM13.3122 44.2013C17.9549 38.3197 24.9787 34.304 32.9789 34.1909C35.6456 34.1533 38.4206 34.5492 41.2523 35.4542L41.2765 35.4627L41.3007 35.4707C43.3013 36.1632 45.2199 37.1454 47 38.3566L45.8584 42.8325C44.026 41.3689 42.0052 40.2045 39.9381 39.4855C30.2817 36.4109 21.913 40.1454 16.6391 46.827C11.3606 53.5144 9.46134 63.0903 13.2709 71.4828C13.5109 71.9957 13.5357 72.5833 13.3397 73.1147C13.1437 73.6459 12.7433 74.0768 12.2276 74.3108C11.7121 74.5451 11.1241 74.563 10.5951 74.361C10.0661 74.1589 9.63989 73.7535 9.41175 73.2352C4.88618 63.2655 7.12214 52.0436 13.3122 44.2013ZM45.8584 65.5119C46.4801 65.9774 47.7094 66.2591 49.0081 66.0938L52.1951 69.6294C51.3471 69.9647 50.4499 70.1838 49.5429 70.2991C47.4212 70.5687 45.1489 70.2751 43.3179 68.9042C40.8174 67.0322 39.9629 64.2023 39.1992 61.6732C39.0449 61.162 38.8942 60.6631 38.7344 60.1868C38.2594 58.7706 37.7446 57.524 37.1253 56.6529C36.506 55.7818 35.8761 55.2632 34.7909 54.9725C30.9588 53.9458 28.1681 56.4314 27.5659 58.9252C25.631 66.94 32.0122 77.5952 42.1301 80.5073C42.6791 80.6549 43.1458 81.017 43.4253 81.512C43.7049 82.0071 43.7737 82.5937 43.6165 83.1401C43.4591 83.6864 43.0891 84.1468 42.5891 84.4175C42.0892 84.6883 41.5015 84.7469 40.9579 84.58C28.7174 81.0569 20.8499 68.6849 23.4461 57.931C24.607 53.1225 29.8614 49.2641 35.8886 50.8791C37.9592 51.4339 39.5345 52.7276 40.5797 54.1977C41.6248 55.6678 42.2336 57.2922 42.7526 58.8392L42.9087 59.3055C43.8767 62.1979 44.694 64.6402 45.8584 65.5119ZM32.7919 42.7535C32.2614 42.7442 31.7393 42.7607 31.2258 42.8007C24.0363 43.3627 18.5539 48.6155 16.3363 54.4353C12.6933 63.9961 17.1545 74.196 23.9528 82.9104C24.2932 83.3684 24.8039 83.6696 25.3694 83.7461C25.935 83.8226 26.5074 83.6677 26.9572 83.3168C27.4072 82.9658 27.6965 82.4482 27.7597 81.8811C27.8231 81.314 27.655 80.7453 27.2936 80.3036C20.9294 72.1457 17.4338 63.4589 20.2973 55.9444C22.2407 50.8439 27.3199 46.3256 33.9317 47.0714C40.1915 47.7773 45.9424 51.9373 47.0547 60.0054L45.5355 48C42.446 45.0662 38.4712 43.3179 34.4069 42.8595C33.8609 42.798 33.3223 42.763 32.7919 42.7535ZM32.8406 58.7376C32.2423 58.7484 31.6763 59.0117 31.2826 59.4622C30.8889 59.9129 30.7039 60.509 30.7737 61.1035C31.4293 67.4708 34.6785 73.079 39.6194 76.1022C44.5603 79.1254 51.2161 79.297 57.6652 75.2016L55.3929 71.6239C50.0405 75.0229 45.4671 74.7104 41.8321 72.4864C38.1971 70.2621 35.5241 65.8597 34.9896 60.6698C34.8915 59.5615 33.9531 58.7178 32.8406 58.7376Z"
    fill="#0089E7"
  />
  <circle cx="83.3999" cy="48" r="38" stroke="#0089E7" stroke-width="4" />
  <path d="M72 63.5C72 63.5 75 69 83.5 69C92 69 95 63.5 95 63.5" stroke="#0089E7" stroke-width="4" stroke-linecap="round" />
  <path d="M85.6812 37.4844V50.1984C85.6812 50.1984 85.671 55.9336 80.0366 55.9336" stroke="#0089E7" stroke-width="4" stroke-linecap="round" />
  <path d="M67.7999 37.6001V44.0001" stroke="#0089E7" stroke-width="4.8" stroke-linecap="round" />
  <path d="M100.6 37.6001V44.0001" stroke="#0089E7" stroke-width="4.8" stroke-linecap="round" />
</svg>
