<svg width="40" height="40" viewBox="0 0 40 40" fill="none" xmlns="http://www.w3.org/2000/svg">
<rect x="2" y="2" width="36" height="36" rx="18" fill="#F7931A"/>
<path d="M27.9373 17.4355C28.2956 15.0401 26.4719 13.7525 23.9781 12.8935L24.7871 9.64871L22.8119 9.15654L22.0243 12.3159C21.5051 12.1864 20.9718 12.0644 20.4418 11.9434L21.2351 8.76317L19.2611 8.271L18.4516 11.5147C18.0219 11.4169 17.5999 11.3202 17.1904 11.2183L17.1927 11.2081L14.4689 10.5279L13.9434 12.6376C13.9434 12.6376 15.4089 12.9735 15.378 12.9942C16.1778 13.1938 16.3225 13.7233 16.2985 14.1429L15.3769 17.8395C15.432 17.8535 15.5034 17.8737 15.5823 17.9054C15.5164 17.889 15.4463 17.8712 15.3735 17.8538L14.0818 23.0321C13.9841 23.2751 13.736 23.6398 13.1768 23.5014C13.1966 23.53 11.7411 23.1431 11.7411 23.1431L10.7605 25.4041L13.3309 26.0448C13.8091 26.1648 14.2777 26.2902 14.7391 26.4082L13.9218 29.6902L15.8947 30.1824L16.7041 26.9352C17.2431 27.0815 17.7662 27.2165 18.2782 27.3437L17.4715 30.5756L19.4468 31.0677L20.2641 27.7919C23.6322 28.4293 26.1648 28.1723 27.2308 25.1259C28.0898 22.6731 27.188 21.2583 25.4161 20.3357C26.7067 20.0381 27.6788 19.1893 27.938 17.4358L27.9374 17.4353L27.9373 17.4355ZM23.4244 23.7637C22.814 26.2165 18.6843 24.8906 17.3454 24.5581L18.43 20.21C19.7688 20.5443 24.0624 21.2057 23.4245 23.7637H23.4244ZM24.0353 17.4C23.4784 19.631 20.0412 18.4975 18.9262 18.2196L19.9096 14.2761C21.0246 14.5541 24.6153 15.0728 24.0354 17.4H24.0353Z" fill="white"/>
</svg>
