<svg width="40" height="40" viewBox="0 0 40 40" fill="none" xmlns="http://www.w3.org/2000/svg">
<rect x="2" y="2" width="36" height="36" rx="18" fill="#F3BA2F"/>
<path d="M15.3409 18.0845L20.0023 13.4252L24.6656 18.0883L27.3764 15.3757L20.0023 8L12.6283 15.3738L15.3409 18.0845Z" fill="white"/>
<path d="M8 20.0005L10.7117 17.2889L13.4234 20.0005L10.7117 22.7121L8 20.0005Z" fill="white"/>
<path d="M15.3409 21.9156L20.0023 26.5768L24.6656 21.9137L27.3782 24.6225L27.3763 24.6244L20.0023 32.0001L12.6282 24.6282L12.6244 24.6244L15.3409 21.9156Z" fill="white"/>
<path d="M26.5767 20.0013L29.2884 17.2898L32 20.0013L29.2884 22.7129L26.5767 20.0013Z" fill="white"/>
<path d="M22.7529 19.9992L20.0023 17.2468L17.9683 19.2808L17.7332 19.5139L17.2517 19.9954L17.2479 19.9992L17.2517 20.0049L20.0023 22.7535L22.7529 20.0011L22.7548 19.9992H22.7529Z" fill="white"/>
</svg>
