<svg width="40" height="40" viewBox="0 0 40 40" fill="none" xmlns="http://www.w3.org/2000/svg">
<rect x="2" y="2" width="36" height="36" rx="18" fill="#0F61FF"/>
<path d="M27.9949 25.7059C27.7629 21.2984 22.5994 19.295 22.1052 19.0892C22.085 19.0784 22.085 19.0567 22.0951 19.0351L27.42 13.2955V12.6783C27.42 12.5808 27.3393 12.4942 27.2486 12.4942H17.4358V9.03961V8L13.8153 8.8122V9.39698H14.017C14.017 9.39698 14.9045 9.39698 14.9045 10.35V12.4833H12.1009C12.0504 12.4833 12 12.5375 12 12.5916V13.9453H14.9146C14.9146 13.9453 14.9146 15.3856 14.9146 17.0641V21.2984C14.9146 23.605 16.2962 25.2078 18.7166 24.9912C19.231 24.9479 19.705 24.7313 20.1084 24.4497C20.2899 24.3198 20.4008 24.114 20.4008 23.8758V23.1502C19.6142 23.7133 18.9486 23.6808 18.9486 23.6808C17.4157 23.6808 17.4459 21.5908 17.4459 21.5908V13.9453H24.5054L19.4226 19.4466C19.4125 20.1722 19.4024 20.7353 19.4024 20.7461C19.4024 20.7678 19.4125 20.7786 19.4327 20.7786C24.0919 21.6233 25.3526 24.8612 25.3526 25.8034C25.3526 25.8034 25.8568 30.3842 21.5909 30.6982C21.5909 30.6982 18.7973 30.8282 18.3031 29.6261C18.283 29.5828 18.3031 29.5395 18.3435 29.5178C18.8074 29.2904 19.12 28.8464 19.12 28.2508C19.12 27.3628 18.6158 26.6373 17.5568 26.6373C16.6996 26.6373 15.9937 27.3628 15.9937 28.2508C15.9937 28.2508 15.5903 32.1061 21.5808 31.9978C28.4184 31.8678 27.9949 25.7059 27.9949 25.7059Z" fill="white"/>
</svg>
