<svg width="218" height="40" viewBox="0 0 218 40" fill="none" xmlns="http://www.w3.org/2000/svg">
<path d="M49.3433 31.1111C49.3433 36.0203 45.3595 40 40.4453 40L8.89799 40C3.98379 40 3.42224e-05 36.0203 3.37928e-05 31.1111L3.19542e-05 10.101C3.15246e-05 5.19184 3.98378 1.21215 8.89799 1.21215L40.4453 1.21214C45.3595 1.21214 49.3433 5.19183 49.3433 10.101L49.3433 31.1111Z" fill="#FFB200"/>
<path d="M18.8289 14.7693C19.8826 13.7153 20.7931 12.8505 21.562 12.1455L21.6405 12.0741C22.4686 11.3271 23.5437 10.9122 24.6594 10.9091C25.775 10.906 26.8525 11.3149 27.6846 12.0572L27.773 12.1357C28.5447 12.8435 29.4566 13.7097 30.5159 14.7679L30.5327 14.7847C31.5836 15.8359 32.4464 16.7399 33.1507 17.5079L33.2293 17.5962C33.9724 18.4276 34.3817 19.5039 34.3786 20.6184C34.3754 21.7329 33.9601 22.807 33.2124 23.6342L33.1409 23.7126C32.4394 24.4821 31.5695 25.3945 30.5145 26.4443L30.4976 26.4611C29.4496 27.5067 28.5475 28.3658 27.7814 29.0666L27.7029 29.1381C26.8748 29.885 25.7997 30.2999 24.6841 30.303C23.5684 30.3061 22.491 29.8972 21.6588 29.1549L21.5704 29.0764C20.8015 28.3757 19.8966 27.5109 18.8444 26.4611L18.8275 26.4443C17.7683 25.3861 16.8998 24.4821 16.1927 23.7042L16.1141 23.6159C15.3711 22.7846 14.9618 21.7083 14.9649 20.5937C14.968 19.4792 15.3833 18.4052 16.131 17.578L16.2025 17.4995C16.904 16.7329 17.7655 15.8303 18.8135 14.7833L18.8289 14.7693Z" fill="white"/>
<path fill-rule="evenodd" clip-rule="evenodd" d="M88.8638 27.1572C87.2653 29.7707 84.3829 31.5151 81.0926 31.5151C76.0667 31.5151 71.9924 27.445 71.9924 22.4242C71.9924 17.4035 76.0667 13.3333 81.0926 13.3333C84.3829 13.3333 87.2653 15.0777 88.8638 17.6913L92.9379 13.6214C90.2467 10.0134 85.9428 7.67676 81.0926 7.67676C72.9395 7.67676 66.3301 14.2794 66.3301 22.4242C66.3301 30.569 72.9395 37.1717 81.0926 37.1717C85.9428 37.1717 90.2467 34.835 92.9379 31.2271L88.8638 27.1572Z" fill="black"/>
<path fill-rule="evenodd" clip-rule="evenodd" d="M183.91 27.1572C182.312 29.7707 179.429 31.5151 176.139 31.5151C171.113 31.5151 167.039 27.445 167.039 22.4242C167.039 17.4035 171.113 13.3333 176.139 13.3333C179.429 13.3333 182.312 15.0777 183.91 17.6913L187.984 13.6214C185.293 10.0134 180.989 7.67676 176.139 7.67676C167.986 7.67676 161.376 14.2794 161.376 22.4242C161.376 30.569 167.986 37.1717 176.139 37.1717C180.989 37.1717 185.293 34.835 187.984 31.2271L183.91 27.1572Z" fill="black"/>
<path d="M97.8776 0H103.944V36.7677H97.8776V0Z" fill="black"/>
<path fill-rule="evenodd" clip-rule="evenodd" d="M198.991 0H192.924V36.7677L196.564 36.7677L198.991 36.7677V20.197C198.993 16.629 201.89 13.7374 205.462 13.7374C209.036 13.7374 211.933 16.6317 211.933 20.202L211.933 36.7677H218L218 18.7879C218 12.8745 213.201 8.08081 207.282 8.08081C203.941 8.08081 200.956 9.60828 198.991 12.0024V0Z" fill="black"/>
<path fill-rule="evenodd" clip-rule="evenodd" d="M110.416 26.4647V8.48486H116.482V25.0505C116.482 28.6208 119.38 31.5152 122.954 31.5152C126.528 31.5152 129.425 28.6208 129.425 25.0505V8.48486H131.852H135.492V36.7677H129.425V33.2501C127.459 35.6442 124.475 37.1717 121.134 37.1717C115.214 37.1717 110.416 32.378 110.416 26.4647Z" fill="black"/>
<path fill-rule="evenodd" clip-rule="evenodd" d="M145.603 0.808899H151.67V8.48566H157.332V14.1422H151.67V29.0917C151.67 30.2074 152.575 31.1119 153.692 31.1119H157.332V36.7685H152.074C148.5 36.7685 145.603 33.8742 145.603 30.3038V14.1422H140.345V8.48566H145.603V0.808899Z" fill="black"/>
</svg>
