<svg width="135" height="16" viewBox="0 0 135 16" fill="none" xmlns="http://www.w3.org/2000/svg">
<path d="M7.73894 3.95992C7.73894 4.88978 7.40679 5.66466 6.74251 6.28457C6.08929 6.89379 5.08733 7.1984 3.73661 7.1984H1.51125V11.8637H0V0.689378H3.73661C5.04304 0.689378 6.03394 0.993988 6.70929 1.60321C7.39572 2.21242 7.73894 2.998 7.73894 3.95992ZM3.73661 5.99599C4.57804 5.99599 5.19804 5.81964 5.59661 5.46693C5.99519 5.11423 6.19447 4.61189 6.19447 3.95992C6.19447 2.58116 5.37518 1.89178 3.73661 1.89178H1.51125V5.99599H3.73661Z" fill="#808080"/>
<path d="M13.5863 12.008C12.7338 12.008 11.9588 11.821 11.2613 11.4469C10.5749 11.0728 10.0324 10.5438 9.63384 9.85972C9.24634 9.165 9.05259 8.36339 9.05259 7.45491C9.05259 6.55711 9.25188 5.7662 9.65045 5.08216C10.0601 4.38744 10.6137 3.85838 11.3112 3.49499C12.0087 3.12091 12.7892 2.93387 13.6528 2.93387C14.5163 2.93387 15.2969 3.12091 15.9944 3.49499C16.6919 3.85838 17.2399 4.3821 17.6385 5.06613C18.0481 5.75017 18.253 6.54643 18.253 7.45491C18.253 8.36339 18.0426 9.165 17.6219 9.85972C17.2122 10.5438 16.6531 11.0728 15.9446 11.4469C15.236 11.821 14.4499 12.008 13.5863 12.008ZM13.5863 10.7255C14.1288 10.7255 14.6381 10.6025 15.1142 10.3567C15.5903 10.1109 15.9722 9.74215 16.2601 9.2505C16.559 8.75885 16.7085 8.16032 16.7085 7.45491C16.7085 6.7495 16.5646 6.15097 16.2767 5.65932C15.9888 5.16767 15.6124 4.80427 15.1474 4.56914C14.6824 4.32331 14.1787 4.2004 13.6362 4.2004C13.0826 4.2004 12.5733 4.32331 12.1083 4.56914C11.6544 4.80427 11.289 5.16767 11.0122 5.65932C10.7354 6.15097 10.5971 6.7495 10.5971 7.45491C10.5971 8.17101 10.7299 8.77488 10.9956 9.26653C11.2724 9.75818 11.6378 10.1269 12.0917 10.3727C12.5456 10.6079 13.0438 10.7255 13.5863 10.7255Z" fill="#808080"/>
<path d="M32.3632 3.07816L29.5234 11.8637H27.9623L25.7702 4.88978L23.578 11.8637H22.0169L19.1605 3.07816H20.705L22.7975 10.4529L25.0561 3.07816H26.6005L28.8093 10.4689L30.8686 3.07816H32.3632Z" fill="#808080"/>
<path d="M42.1666 7.13427C42.1666 7.41216 42.15 7.70608 42.1168 8.01603H34.8429C34.8982 8.88176 35.2027 9.56045 35.7563 10.0521C36.3209 10.5331 37.0018 10.7735 37.7989 10.7735C38.4522 10.7735 38.9947 10.6293 39.4264 10.3407C39.8693 10.0414 40.1793 9.64596 40.3564 9.15431H41.9839C41.7404 9.99866 41.2532 10.688 40.5225 11.2224C39.7918 11.7462 38.8839 12.008 37.7989 12.008C36.9354 12.008 36.1604 11.821 35.4739 11.4469C34.7986 11.0728 34.2672 10.5438 33.8797 9.85972C33.4921 9.165 33.2984 8.36339 33.2984 7.45491C33.2984 6.54643 33.4866 5.75017 33.863 5.06613C34.2395 4.3821 34.7654 3.85838 35.4407 3.49499C36.1271 3.12091 36.9132 2.93387 37.7989 2.93387C38.6625 2.93387 39.4264 3.11556 40.0907 3.47896C40.755 3.84235 41.2643 4.34469 41.6186 4.98597C41.9839 5.61657 42.1666 6.33267 42.1666 7.13427ZM40.6055 6.82966C40.6055 6.27388 40.4782 5.79826 40.2236 5.40281C39.9689 4.99666 39.6202 4.69205 39.1773 4.48898C38.7455 4.27522 38.2639 4.16834 37.7325 4.16834C36.9686 4.16834 36.3154 4.40347 35.7729 4.87375C35.2414 5.34402 34.937 5.99599 34.8595 6.82966H40.6055Z" fill="#808080"/>
<path d="M45.6727 4.50501C45.9384 4.00267 46.3148 3.61256 46.802 3.33467C47.3002 3.05678 47.9036 2.91784 48.6121 2.91784V4.42485H48.2136C46.5196 4.42485 45.6727 5.31196 45.6727 7.08617V11.8637H44.1614V3.07816H45.6727V4.50501Z" fill="#808080"/>
<path d="M58.6603 7.13427C58.6603 7.41216 58.6436 7.70608 58.6104 8.01603H51.3365C51.3919 8.88176 51.6963 9.56045 52.2499 10.0521C52.8145 10.5331 53.4954 10.7735 54.2926 10.7735C54.9458 10.7735 55.4883 10.6293 55.9201 10.3407C56.3629 10.0414 56.6729 9.64596 56.8501 9.15431H58.4776C58.234 9.99866 57.7469 10.688 57.0161 11.2224C56.2854 11.7462 55.3776 12.008 54.2926 12.008C53.429 12.008 52.654 11.821 51.9676 11.4469C51.2922 11.0728 50.7608 10.5438 50.3733 9.85972C49.9858 9.165 49.792 8.36339 49.792 7.45491C49.792 6.54643 49.9802 5.75017 50.3567 5.06613C50.7331 4.3821 51.259 3.85838 51.9344 3.49499C52.6208 3.12091 53.4069 2.93387 54.2926 2.93387C55.1561 2.93387 55.9201 3.11556 56.5844 3.47896C57.2486 3.84235 57.7579 4.34469 58.1122 4.98597C58.4776 5.61657 58.6603 6.33267 58.6603 7.13427ZM57.0992 6.82966C57.0992 6.27388 56.9719 5.79826 56.7172 5.40281C56.4626 4.99666 56.1138 4.69205 55.671 4.48898C55.2392 4.27522 54.7576 4.16834 54.2261 4.16834C53.4622 4.16834 52.809 4.40347 52.2665 4.87375C51.7351 5.34402 51.4306 5.99599 51.3531 6.82966H57.0992Z" fill="#808080"/>
<path d="M60.0904 7.43888C60.0904 6.54108 60.2786 5.75551 60.6551 5.08216C61.0315 4.39813 61.5463 3.86907 62.1995 3.49499C62.8638 3.12091 63.6056 2.93387 64.4249 2.93387C65.1335 2.93387 65.7922 3.09419 66.4011 3.41483C67.0101 3.72478 67.4751 4.13627 67.7961 4.6493V0H69.324V11.8637H67.7961V10.2124C67.4972 10.7361 67.0544 11.169 66.4676 11.511C65.8808 11.8424 65.1944 12.008 64.4083 12.008C63.6001 12.008 62.8638 11.8156 62.1995 11.4309C61.5463 11.0461 61.0315 10.5063 60.6551 9.81162C60.2786 9.1169 60.0904 8.32599 60.0904 7.43888ZM67.7961 7.45491C67.7961 6.79225 67.6577 6.2151 67.381 5.72345C67.1042 5.2318 66.7277 4.85772 66.2517 4.6012C65.7867 4.334 65.2719 4.2004 64.7072 4.2004C64.1426 4.2004 63.6277 4.32866 63.1627 4.58517C62.6977 4.84168 62.3268 5.21577 62.0501 5.70742C61.7733 6.19906 61.6349 6.77622 61.6349 7.43888C61.6349 8.11222 61.7733 8.70007 62.0501 9.2024C62.3268 9.69405 62.6977 10.0735 63.1627 10.3407C63.6277 10.5972 64.1426 10.7255 64.7072 10.7255C65.2719 10.7255 65.7867 10.5972 66.2517 10.3407C66.7277 10.0735 67.1042 9.69405 67.381 9.2024C67.6577 8.70007 67.7961 8.11757 67.7961 7.45491Z" fill="#808080"/>
<path d="M77.8166 4.71343C78.1266 4.18971 78.5805 3.76219 79.1784 3.43086C79.7763 3.09953 80.4572 2.93387 81.2211 2.93387C82.0404 2.93387 82.7766 3.12091 83.4298 3.49499C84.083 3.86907 84.5979 4.39813 84.9743 5.08216C85.3507 5.75551 85.5389 6.54108 85.5389 7.43888C85.5389 8.32599 85.3507 9.1169 84.9743 9.81162C84.5979 10.5063 84.0775 11.0461 83.4132 11.4309C82.76 11.8156 82.0293 12.008 81.2211 12.008C80.435 12.008 79.743 11.8424 79.1452 11.511C78.5584 11.1797 78.1155 10.7575 77.8166 10.2445V11.8637H76.3054V0H77.8166V4.71343ZM83.9945 7.43888C83.9945 6.77622 83.8561 6.19906 83.5793 5.70742C83.3025 5.21577 82.9261 4.84168 82.45 4.58517C81.985 4.32866 81.4702 4.2004 80.9055 4.2004C80.352 4.2004 79.8371 4.334 79.3611 4.6012C78.8961 4.85772 78.5196 5.23714 78.2318 5.73948C77.955 6.23113 77.8166 6.80294 77.8166 7.45491C77.8166 8.11757 77.955 8.70007 78.2318 9.2024C78.5196 9.69405 78.8961 10.0735 79.3611 10.3407C79.8371 10.5972 80.352 10.7255 80.9055 10.7255C81.4702 10.7255 81.985 10.5972 82.45 10.3407C82.9261 10.0735 83.3025 9.69405 83.5793 9.2024C83.8561 8.70007 83.9945 8.11222 83.9945 7.43888Z" fill="#808080"/>
<path d="M95.3667 3.07816L89.8864 16H88.3253L90.1189 11.7675L86.4487 3.07816H88.126L90.9825 10.1964L93.8057 3.07816H95.3667Z" fill="#808080"/>
<path d="M114.267 0.609218V11.8637H111.427V5.11423L108.82 11.8637H106.528L103.904 5.0982V11.8637H101.064V0.609218H104.419L107.691 8.4008L110.929 0.609218H114.267Z" fill="#808080"/>
<path d="M127.253 0.609218L123.118 11.8637H119.564L115.429 0.609218H118.451L121.341 9.10621L124.247 0.609218H127.253Z" fill="#808080"/>
<path d="M131.28 9.7475H135V11.8637H128.44V0.609218H131.28V9.7475Z" fill="#808080"/>
</svg>
