<svg width="32" height="32" viewBox="0 0 32 32" fill="none" xmlns="http://www.w3.org/2000/svg">
<path fill-rule="evenodd" clip-rule="evenodd" d="M14 10C14 7.79086 12.2114 6 10 6C7.792 6 6 7.79086 6 10C6 12.2091 7.792 14 10 14C12.2114 14 14 12.2091 14 10Z" fill="black" stroke="black" stroke-width="2"/>
<path fill-rule="evenodd" clip-rule="evenodd" d="M26 10C26 7.79086 24.2114 6 22 6C19.792 6 18 7.79086 18 10C18 12.2091 19.792 14 22 14C24.2114 14 26 12.2091 26 10Z" fill="black" stroke="black" stroke-width="2"/>
<path fill-rule="evenodd" clip-rule="evenodd" d="M14 22C14 19.7909 12.2114 18 10 18C7.792 18 6 19.7909 6 22C6 24.2091 7.792 26 10 26C12.2114 26 14 24.2091 14 22Z" fill="black" stroke="black" stroke-width="2"/>
<path fill-rule="evenodd" clip-rule="evenodd" d="M26 22C26 19.7909 24.2114 18 22 18C19.792 18 18 19.7909 18 22C18 24.2091 19.792 26 22 26C24.2114 26 26 24.2091 26 22Z" fill="black" stroke="black" stroke-width="2"/>
</svg>
