<svg width="32" height="32" viewBox="0 0 32 32" fill="none" xmlns="http://www.w3.org/2000/svg">
<circle cx="16" cy="16" r="13" stroke="#B3B3B3" stroke-width="2"/>
<path d="M14.604 24V22.4706C13.9307 22.4314 13.297 22.3529 12.703 22.2353C12.1089 22.1046 11.6007 21.9346 11.1782 21.7255V18.7843C11.7723 19.0588 12.4323 19.281 13.1584 19.451C13.8845 19.6209 14.5644 19.7059 15.198 19.7059C15.8581 19.7059 16.3531 19.6405 16.6832 19.5098C17.0132 19.366 17.1782 19.098 17.1782 18.7059C17.1782 18.3007 16.9604 18.0065 16.5248 17.8235C16.1023 17.6275 15.4092 17.3856 14.4455 17.098C13.5875 16.8235 12.9076 16.5229 12.4059 16.1961C11.9043 15.8693 11.5413 15.4706 11.3168 15C11.1056 14.5294 11 13.9542 11 13.2745C11 11.2092 12.2013 9.98693 14.604 9.60784V8H17.6733V9.56863C18.1749 9.62091 18.6502 9.69281 19.099 9.78431C19.5611 9.86275 19.9571 9.95425 20.2871 10.0588V13.0196C19.6667 12.7712 19.0726 12.5948 18.505 12.4902C17.9373 12.3856 17.4026 12.3333 16.901 12.3333C16.3201 12.3333 15.8251 12.3922 15.4158 12.5098C15.0066 12.6275 14.802 12.8758 14.802 13.2549C14.802 13.5817 14.9736 13.8301 15.3168 14C15.6733 14.1569 16.3003 14.3529 17.198 14.5882C18.2409 14.8627 19.033 15.1961 19.5743 15.5882C20.1287 15.9804 20.5049 16.4379 20.703 16.9608C20.901 17.4706 21 18.0523 21 18.7059C21 19.6078 20.7228 20.3726 20.1683 21C19.6139 21.6275 18.7822 22.0654 17.6733 22.3137V24H14.604Z" fill="#B3B3B3"/>
</svg>
