<svg width="32" height="32" viewBox="0 0 32 32" fill="none" xmlns="http://www.w3.org/2000/svg">
<mask id="path-1-inside-1_5480_139659" fill="white">
<path fill-rule="evenodd" clip-rule="evenodd" d="M16 30C23.732 30 30 23.732 30 16C30 8.26801 23.732 2 16 2C8.26801 2 2 8.26801 2 16C2 23.732 8.26801 30 16 30ZM14.3714 23.5489V25.3332H17.9522V23.3659C19.246 23.0761 20.2163 22.5652 20.8631 21.8332C21.51 21.1012 21.8334 20.209 21.8334 19.1567C21.8334 18.3942 21.7179 17.7156 21.4869 17.1208C21.2559 16.5108 20.8169 15.977 20.17 15.5195C19.5386 15.062 18.6145 14.6731 17.3978 14.3528C16.3505 14.0783 15.6189 13.8495 15.2031 13.6665C14.8026 13.4683 14.6024 13.1785 14.6024 12.7973C14.6024 12.355 14.8411 12.0652 15.3186 11.928C15.796 11.7907 16.3736 11.7221 17.0512 11.7221C17.6365 11.7221 18.2603 11.7831 18.9225 11.9051C19.5848 12.0271 20.2779 12.233 21.0017 12.5227V9.0685C20.6167 8.9465 20.1546 8.83974 19.6156 8.74824C19.0919 8.64149 18.5375 8.55761 17.9522 8.4966V6.66654H14.3714V8.54236C11.5683 8.98462 10.1667 10.4105 10.1667 12.8201C10.1667 13.6132 10.29 14.2842 10.5364 14.8332C10.7982 15.3822 11.2218 15.8474 11.807 16.2286C12.3923 16.6099 13.1854 16.9607 14.1866 17.2809C15.3109 17.6164 16.1194 17.8986 16.6123 18.1273C17.1205 18.3408 17.3747 18.684 17.3747 19.1567C17.3747 19.6143 17.1821 19.9269 16.7971 20.0946C16.4121 20.2471 15.8345 20.3234 15.0644 20.3234C14.3252 20.3234 13.532 20.2243 12.6849 20.026C11.8378 19.8278 11.0677 19.5685 10.3747 19.2482V22.6796C10.8675 22.9236 11.4605 23.1219 12.1535 23.2744C12.8466 23.4116 13.5859 23.5031 14.3714 23.5489Z"/>
</mask>
<path fill-rule="evenodd" clip-rule="evenodd" d="M16 30C23.732 30 30 23.732 30 16C30 8.26801 23.732 2 16 2C8.26801 2 2 8.26801 2 16C2 23.732 8.26801 30 16 30ZM14.3714 23.5489V25.3332H17.9522V23.3659C19.246 23.0761 20.2163 22.5652 20.8631 21.8332C21.51 21.1012 21.8334 20.209 21.8334 19.1567C21.8334 18.3942 21.7179 17.7156 21.4869 17.1208C21.2559 16.5108 20.8169 15.977 20.17 15.5195C19.5386 15.062 18.6145 14.6731 17.3978 14.3528C16.3505 14.0783 15.6189 13.8495 15.2031 13.6665C14.8026 13.4683 14.6024 13.1785 14.6024 12.7973C14.6024 12.355 14.8411 12.0652 15.3186 11.928C15.796 11.7907 16.3736 11.7221 17.0512 11.7221C17.6365 11.7221 18.2603 11.7831 18.9225 11.9051C19.5848 12.0271 20.2779 12.233 21.0017 12.5227V9.0685C20.6167 8.9465 20.1546 8.83974 19.6156 8.74824C19.0919 8.64149 18.5375 8.55761 17.9522 8.4966V6.66654H14.3714V8.54236C11.5683 8.98462 10.1667 10.4105 10.1667 12.8201C10.1667 13.6132 10.29 14.2842 10.5364 14.8332C10.7982 15.3822 11.2218 15.8474 11.807 16.2286C12.3923 16.6099 13.1854 16.9607 14.1866 17.2809C15.3109 17.6164 16.1194 17.8986 16.6123 18.1273C17.1205 18.3408 17.3747 18.684 17.3747 19.1567C17.3747 19.6143 17.1821 19.9269 16.7971 20.0946C16.4121 20.2471 15.8345 20.3234 15.0644 20.3234C14.3252 20.3234 13.532 20.2243 12.6849 20.026C11.8378 19.8278 11.0677 19.5685 10.3747 19.2482V22.6796C10.8675 22.9236 11.4605 23.1219 12.1535 23.2744C12.8466 23.4116 13.5859 23.5031 14.3714 23.5489Z" fill="black"/>
<path d="M14.3714 25.3332H12.3714V27.3332H14.3714V25.3332ZM14.3714 23.5489H16.3714V21.662L14.4877 21.5523L14.3714 23.5489ZM17.9522 25.3332V27.3332H19.9522V25.3332H17.9522ZM17.9522 23.3659L17.5151 21.4142L15.9522 21.7643V23.3659H17.9522ZM20.8631 21.8332L22.3618 23.1576V23.1576L20.8631 21.8332ZM21.4869 17.1208L19.6165 17.8291L19.6195 17.837L19.6226 17.8449L21.4869 17.1208ZM20.17 15.5195L18.9966 17.1391L19.0058 17.1458L19.0152 17.1523L20.17 15.5195ZM17.3978 14.3528L17.9069 12.4187L17.9049 12.4182L17.3978 14.3528ZM15.2031 13.6665L14.3157 15.4589L14.3561 15.4789L14.3974 15.4971L15.2031 13.6665ZM15.3186 11.928L15.8711 13.8501H15.8711L15.3186 11.928ZM18.9225 11.9051L19.2849 9.9382L19.2849 9.9382L18.9225 11.9051ZM21.0017 12.5227L20.2585 14.3795L23.0017 15.4776V12.5227H21.0017ZM21.0017 9.0685H23.0017V7.60423L21.6059 7.16193L21.0017 9.0685ZM19.6156 8.74824L19.2161 10.7079L19.2484 10.7145L19.2809 10.72L19.6156 8.74824ZM17.9522 8.4966H15.9522V10.299L17.7449 10.4858L17.9522 8.4966ZM17.9522 6.66654H19.9522V4.66654H17.9522V6.66654ZM14.3714 6.66654V4.66654H12.3714V6.66654H14.3714ZM14.3714 8.54236L14.6831 10.5179L16.3714 10.2515V8.54236H14.3714ZM10.5364 14.8332L8.71175 15.6522L8.72121 15.6733L8.73116 15.6941L10.5364 14.8332ZM11.807 16.2286L12.8987 14.5529H12.8987L11.807 16.2286ZM14.1866 17.2809L13.5772 19.1858L13.5958 19.1918L13.6146 19.1974L14.1866 17.2809ZM16.6123 18.1273L15.7703 19.9414L15.8037 19.957L15.8377 19.9712L16.6123 18.1273ZM16.7971 20.0946L17.5336 21.9541L17.565 21.9417L17.596 21.9282L16.7971 20.0946ZM10.3747 19.2482L11.2136 17.4327L8.37467 16.1209V19.2482H10.3747ZM10.3747 22.6796H8.37467V23.9211L9.48728 24.472L10.3747 22.6796ZM12.1535 23.2744L11.7237 25.2276L11.7443 25.2322L11.765 25.2363L12.1535 23.2744ZM28 16C28 22.6274 22.6274 28 16 28V32C24.8366 32 32 24.8366 32 16H28ZM16 4C22.6274 4 28 9.37258 28 16H32C32 7.16344 24.8366 0 16 0V4ZM4 16C4 9.37258 9.37258 4 16 4V0C7.16344 0 0 7.16344 0 16H4ZM16 28C9.37258 28 4 22.6274 4 16H0C0 24.8366 7.16344 32 16 32V28ZM16.3714 25.3332V23.5489H12.3714V25.3332H16.3714ZM17.9522 23.3332H14.3714V27.3332H17.9522V23.3332ZM15.9522 23.3659V25.3332H19.9522V23.3659H15.9522ZM19.3644 20.5089C19.0807 20.83 18.542 21.1842 17.5151 21.4142L18.3893 25.3175C19.9499 24.968 21.3519 24.3005 22.3618 23.1576L19.3644 20.5089ZM19.8334 19.1567C19.8334 19.7621 19.6622 20.1719 19.3644 20.5089L22.3618 23.1576C23.3578 22.0305 23.8334 20.656 23.8334 19.1567H19.8334ZM19.6226 17.8449C19.7483 18.1686 19.8334 18.5947 19.8334 19.1567H23.8334C23.8334 18.1937 23.6875 17.2625 23.3512 16.3967L19.6226 17.8449ZM19.0152 17.1523C19.4074 17.4298 19.5544 17.6651 19.6165 17.8291L23.3572 16.4125C22.9573 15.3564 22.2264 14.5242 21.3249 13.8866L19.0152 17.1523ZM16.8887 16.2869C17.9949 16.5781 18.6503 16.8881 18.9966 17.1391L21.3435 13.8999C20.4269 13.2358 19.2341 12.768 17.9069 12.4187L16.8887 16.2869ZM14.3974 15.4971C14.973 15.7504 15.8422 16.0127 16.8907 16.2875L17.9049 12.4182C16.8587 12.144 16.2648 11.9487 16.0087 11.836L14.3974 15.4971ZM12.6024 12.7973C12.6024 13.3589 12.7569 13.9306 13.1072 14.4375C13.4453 14.9269 13.8913 15.2488 14.3157 15.4589L16.0904 11.8742C16.1143 11.886 16.26 11.9639 16.398 12.1636C16.548 12.3807 16.6024 12.6169 16.6024 12.7973H12.6024ZM14.766 10.0058C14.2626 10.1505 13.6855 10.4332 13.2378 10.9765C12.7728 11.541 12.6024 12.1986 12.6024 12.7973H16.6024C16.6024 12.9537 16.5514 13.2452 16.325 13.52C16.1161 13.7735 15.8971 13.8427 15.8711 13.8501L14.766 10.0058ZM17.0512 9.7221C16.2496 9.7221 15.4749 9.80203 14.766 10.0058L15.8711 13.8501C16.1171 13.7794 16.4976 13.7221 17.0512 13.7221V9.7221ZM19.2849 9.9382C18.5205 9.79739 17.7746 9.7221 17.0512 9.7221V13.7221C17.4984 13.7221 18 13.7688 18.5602 13.872L19.2849 9.9382ZM21.745 10.666C20.9169 10.3345 20.0959 10.0876 19.2849 9.9382L18.5602 13.872C19.0736 13.9666 19.6388 14.1315 20.2585 14.3795L21.745 10.666ZM19.0017 9.0685V12.5227H23.0017V9.0685H19.0017ZM19.2809 10.72C19.7583 10.8011 20.1254 10.8888 20.3976 10.9751L21.6059 7.16193C21.108 7.00418 20.551 6.87841 19.9503 6.77644L19.2809 10.72ZM17.7449 10.4858C18.272 10.5408 18.7619 10.6153 19.2161 10.7079L20.0151 6.78855C19.4219 6.66762 18.803 6.57444 18.1596 6.50738L17.7449 10.4858ZM15.9522 6.66654V8.4966H19.9522V6.66654H15.9522ZM14.3714 8.66654H17.9522V4.66654H14.3714V8.66654ZM16.3714 8.54236V6.66654H12.3714V8.54236H16.3714ZM12.1667 12.8201C12.1667 12.0251 12.3844 11.6099 12.6443 11.3455C12.9419 11.0427 13.5328 10.6994 14.6831 10.5179L14.0597 6.5668C12.4068 6.82758 10.8955 7.4184 9.79155 8.54154C8.64988 9.70306 8.16675 11.2056 8.16675 12.8201H12.1667ZM12.361 14.0142C12.2607 13.7908 12.1667 13.4164 12.1667 12.8201H8.16675C8.16675 13.81 8.3192 14.7776 8.71175 15.6522L12.361 14.0142ZM12.8987 14.5529C12.5751 14.342 12.4227 14.1424 12.3416 13.9723L8.73116 15.6941C9.17371 16.6221 9.86843 17.3527 10.7153 17.9044L12.8987 14.5529ZM14.7959 15.376C13.8886 15.0857 13.2791 14.8007 12.8987 14.5529L10.7153 17.9044C11.5054 18.4191 12.4823 18.8356 13.5772 19.1858L14.7959 15.376ZM17.4543 16.3132C16.8214 16.0195 15.8946 15.7035 14.7585 15.3644L13.6146 19.1974C14.7271 19.5294 15.4175 19.7777 15.7703 19.9414L17.4543 16.3132ZM19.3747 19.1567C19.3747 18.5401 19.2008 17.9074 18.7913 17.3545C18.3967 16.8217 17.8778 16.4896 17.3869 16.2834L15.8377 19.9712C15.8551 19.9785 15.7173 19.9247 15.5768 19.7351C15.4215 19.5253 15.3747 19.3006 15.3747 19.1567H19.3747ZM17.596 21.9282C18.1072 21.7054 18.593 21.3356 18.9333 20.783C19.2663 20.2422 19.3747 19.6651 19.3747 19.1567H15.3747C15.3747 19.1058 15.3868 18.9138 15.5273 18.6857C15.675 18.4457 15.8721 18.3161 15.9983 18.2611L17.596 21.9282ZM15.0644 22.3234C15.9079 22.3234 16.7913 22.2481 17.5336 21.9541L16.0606 18.2352C16.0684 18.2321 15.9998 18.2588 15.8134 18.2834C15.6339 18.3071 15.388 18.3234 15.0644 18.3234V22.3234ZM12.2291 21.9734C13.2001 22.2006 14.1476 22.3234 15.0644 22.3234V18.3234C14.5028 18.3234 13.8639 18.2479 13.1407 18.0786L12.2291 21.9734ZM9.53573 21.0638C10.3674 21.4481 11.2681 21.7485 12.2291 21.9734L13.1407 18.0786C12.4076 17.9071 11.7681 17.6889 11.2136 17.4327L9.53573 21.0638ZM12.3747 22.6796V19.2482H8.37467V22.6796H12.3747ZM12.5834 21.3211C12.0056 21.194 11.5746 21.042 11.2621 20.8873L9.48728 24.472C10.1605 24.8053 10.9154 25.0498 11.7237 25.2276L12.5834 21.3211ZM14.4877 21.5523C13.7835 21.5113 13.1359 21.4301 12.5421 21.3125L11.765 25.2363C12.5574 25.3932 13.3883 25.495 14.2551 25.5455L14.4877 21.5523Z" fill="black" mask="url(#path-1-inside-1_5480_139659)"/>
</svg>
