<svg width="32" height="32" viewBox="0 0 32 32" fill="none" xmlns="http://www.w3.org/2000/svg">
<path fill-rule="evenodd" clip-rule="evenodd" d="M5.89367 14.7738L13.8937 6.88565C15.0617 5.73392 16.9383 5.73392 18.1063 6.88564L26.1063 14.7738C26.6781 15.3375 27 16.107 27 16.91V26.0001H17V17.0001H15V26.0001H5V16.91C5 16.107 5.3219 15.3375 5.89367 14.7738ZM15 28.0001L5 28.0001H3V26.0001V16.91C3 15.5717 3.5365 14.2892 4.48945 13.3496L12.4894 5.46151C14.4362 3.54197 17.5638 3.54196 19.5105 5.46151L27.5105 13.3496C28.4635 14.2892 29 15.5717 29 16.91V26.0001V28.0001H27L17 28.0001H15Z" fill="#4D4D4D"/>
</svg>
