<svg width="32" height="32" viewBox="0 0 32 32" fill="none" xmlns="http://www.w3.org/2000/svg">
<path fill-rule="evenodd" clip-rule="evenodd" d="M26.4831 24.3029L28.6031 20.7232C28.8365 20.3291 28.7723 19.8267 28.4472 19.504L26.8491 17.9173C26.9647 17.2936 27.0348 16.6547 27.0348 15.9994C27.0348 15.344 26.9647 14.7051 26.8491 14.0814L28.4462 12.4947C28.7711 12.172 28.8352 11.6698 28.6019 11.2757L26.4818 7.69581C26.2562 7.31484 25.8069 7.12758 25.3775 7.23555L23.1328 7.79996C22.1333 6.97382 20.9806 6.3248 19.7215 5.8858L19.1055 3.72576C18.983 3.29622 18.5905 3 18.1439 3H13.8575C13.4108 3 13.0183 3.29627 12.8959 3.72587L12.2798 5.88706C11.0233 6.32607 9.87062 6.97509 8.87371 7.80123L6.62228 7.23541C6.19299 7.12752 5.74384 7.3147 5.51821 7.69552L3.39707 11.2757C3.16361 11.6697 3.2277 12.172 3.55263 12.4948L5.15219 14.0839C5.03667 14.7064 4.96787 15.3453 4.96787 15.9994C4.96787 16.6547 5.03667 17.2936 5.15219 17.9161L3.55269 19.5051C3.22773 19.8279 3.16366 20.3303 3.39719 20.7243L5.5183 24.3035C5.74389 24.6842 6.19285 24.8713 6.62203 24.7636L8.87241 24.1988C9.87062 25.0236 11.0233 25.6727 12.2798 26.1129L12.8959 28.2741C13.0183 28.7037 13.4108 29 13.8575 29H18.1439C18.5905 29 18.983 28.7038 19.1055 28.2742L19.7215 26.1142C20.9806 25.6739 22.1333 25.0249 23.1341 24.1988L25.3788 24.7632C25.8082 24.8712 26.2575 24.6839 26.4831 24.3029ZM21 16C21 13.2386 18.7643 11 16 11C13.24 11 11 13.2386 11 16C11 18.7614 13.24 21 16 21C18.7643 21 21 18.7614 21 16Z" fill="black"/>
<path d="M28.6031 20.7232L29.4635 21.2327L29.4635 21.2327L28.6031 20.7232ZM26.4831 24.3029L27.3436 24.8125L26.4831 24.3029ZM28.4472 19.504L27.7426 20.2136L28.4472 19.504ZM26.8491 17.9173L25.8659 17.7352L25.7696 18.2547L26.1446 18.627L26.8491 17.9173ZM26.8491 14.0814L26.1444 13.372L25.7697 13.7442L25.8659 14.2635L26.8491 14.0814ZM28.4462 12.4947L29.151 13.2041L28.4462 12.4947ZM28.6019 11.2757L27.7415 11.7853L28.6019 11.2757ZM26.4818 7.69581L27.3423 7.18625L26.4818 7.69581ZM25.3775 7.23555L25.6214 8.20536H25.6214L25.3775 7.23555ZM23.1328 7.79996L22.4957 8.57075L22.8858 8.89319L23.3767 8.76977L23.1328 7.79996ZM19.7215 5.8858L18.7599 6.16004L18.9022 6.65917L19.3923 6.83005L19.7215 5.8858ZM19.1055 3.72576L18.1439 4V4L19.1055 3.72576ZM12.8959 3.72587L11.9342 3.45173V3.45173L12.8959 3.72587ZM12.2798 5.88706L12.6096 6.8311L13.0993 6.66002L13.2415 6.16119L12.2798 5.88706ZM8.87371 7.80123L8.62997 8.77107L9.12153 8.8946L9.51179 8.5712L8.87371 7.80123ZM6.62228 7.23541L6.37855 8.20525H6.37855L6.62228 7.23541ZM5.51821 7.69552L4.65787 7.1858H4.65787L5.51821 7.69552ZM3.39707 11.2757L4.25741 11.7854H4.25741L3.39707 11.2757ZM3.55263 12.4948L4.25741 11.7854H4.25741L3.55263 12.4948ZM5.15219 14.0839L6.1354 14.2664L6.23182 13.7469L5.85698 13.3745L5.15219 14.0839ZM5.15219 17.9161L5.85698 18.6255L6.23182 18.2531L6.1354 17.7336L5.15219 17.9161ZM3.55269 19.5051L4.25747 20.2145H4.25747L3.55269 19.5051ZM3.39719 20.7243L2.53691 21.2342L2.53691 21.2342L3.39719 20.7243ZM5.5183 24.3035L6.37858 23.7937L6.37858 23.7937L5.5183 24.3035ZM6.62203 24.7636L6.37858 23.7937L6.62203 24.7636ZM8.87241 24.1988L9.50942 23.4279L9.11953 23.1057L8.62896 23.2289L8.87241 24.1988ZM12.2798 26.1129L13.2415 25.8388L13.0995 25.3405L12.6105 25.1692L12.2798 26.1129ZM12.8959 28.2741L11.9342 28.5483L12.8959 28.2741ZM19.1055 28.2742L20.0672 28.5485V28.5485L19.1055 28.2742ZM19.7215 26.1142L19.3915 25.1702L18.9021 25.3414L18.7599 25.84L19.7215 26.1142ZM23.1341 24.1988L23.378 23.229L22.8875 23.1056L22.4975 23.4276L23.1341 24.1988ZM25.3788 24.7632L25.135 25.733H25.135L25.3788 24.7632ZM27.7426 20.2136L25.6227 23.7934L27.3436 24.8125L29.4635 21.2327L27.7426 20.2136ZM27.7426 20.2136H27.7426L29.4635 21.2327C29.9303 20.4445 29.8019 19.4399 29.1518 18.7944L27.7426 20.2136ZM26.1446 18.627L27.7426 20.2136L29.1518 18.7944L27.5537 17.2077L26.1446 18.627ZM26.0348 15.9994C26.0348 16.5832 25.9723 17.1604 25.8659 17.7352L27.8324 18.0995C27.957 17.4268 28.0348 16.7262 28.0348 15.9994H26.0348ZM25.8659 14.2635C25.9723 14.8383 26.0348 15.4155 26.0348 15.9994H28.0348C28.0348 15.2726 27.957 14.5719 27.8324 13.8993L25.8659 14.2635ZM27.7415 11.7853L26.1444 13.372L27.5539 14.7908L29.151 13.2041L27.7415 11.7853ZM27.7415 11.7853H27.7415L29.151 13.2041C29.8008 12.5586 29.929 11.5543 29.4623 10.7662L27.7415 11.7853ZM25.6214 8.20536L27.7415 11.7853L29.4623 10.7662L27.3423 7.18625L25.6214 8.20536ZM25.6214 8.20536V8.20536L27.3423 7.18625C26.891 6.42431 25.9925 6.0498 25.1337 6.26574L25.6214 8.20536ZM23.3767 8.76977L25.6214 8.20536L25.1337 6.26574L22.889 6.83015L23.3767 8.76977ZM19.3923 6.83005C20.5411 7.23059 21.5892 7.82144 22.4957 8.57075L23.7699 7.02918C22.6775 6.1262 21.4202 5.41902 20.0508 4.94154L19.3923 6.83005ZM18.1439 4L18.7599 6.16004L20.6832 5.61155L20.0672 3.45151L18.1439 4ZM18.1439 4V4L20.0672 3.45151C19.8222 2.59243 19.0372 2 18.1439 2V4ZM13.8575 4H18.1439V2H13.8575V4ZM13.8575 4V4V2C12.9641 2 12.1791 2.59255 11.9342 3.45173L13.8575 4ZM13.2415 6.16119L13.8575 4L11.9342 3.45173L11.3181 5.61293L13.2415 6.16119ZM9.51179 8.5712C10.4152 7.82255 11.463 7.23171 12.6096 6.8311L11.95 4.94302C10.5836 5.42042 9.32605 6.12762 8.23563 7.03126L9.51179 8.5712ZM6.37855 8.20525L8.62997 8.77107L9.11745 6.83138L6.86602 6.26556L6.37855 8.20525ZM6.37855 8.20525H6.37855L6.86602 6.26556C6.00742 6.04978 5.10913 6.42415 4.65787 7.1858L6.37855 8.20525ZM4.25741 11.7854L6.37855 8.20525L4.65787 7.1858L2.53673 10.766L4.25741 11.7854ZM4.25741 11.7854L2.53673 10.766C2.0698 11.5541 2.19798 12.5586 2.84784 13.2043L4.25741 11.7854ZM5.85698 13.3745L4.25741 11.7854L2.84784 13.2043L4.44741 14.7934L5.85698 13.3745ZM5.96787 15.9994C5.96787 15.4155 6.02927 14.8383 6.1354 14.2664L4.16898 13.9015C4.04407 14.5745 3.96787 15.275 3.96787 15.9994H5.96787ZM6.1354 17.7336C6.02928 17.1618 5.96787 16.5845 5.96787 15.9994H3.96787C3.96787 16.7249 4.04405 17.4254 4.16898 18.0985L6.1354 17.7336ZM4.25747 20.2145L5.85698 18.6255L4.44741 17.2066L2.84791 18.7957L4.25747 20.2145ZM4.25747 20.2145H4.25747L2.84791 18.7957C2.19799 19.4413 2.06985 20.446 2.53691 21.2342L4.25747 20.2145ZM6.37858 23.7937L4.25747 20.2145L2.53691 21.2342L4.65802 24.8134L6.37858 23.7937ZM6.37858 23.7937L6.37858 23.7937L4.65802 24.8134C5.10921 25.5747 6.00711 25.949 6.86548 25.7335L6.37858 23.7937ZM8.62896 23.2289L6.37858 23.7937L6.86548 25.7335L9.11586 25.1687L8.62896 23.2289ZM12.6105 25.1692C11.4633 24.7672 10.4147 24.176 9.50942 23.4279L8.23541 24.9696C9.3265 25.8713 10.5833 26.5781 11.9491 27.0567L12.6105 25.1692ZM13.8575 28L13.2415 25.8388L11.3181 26.3871L11.9342 28.5483L13.8575 28ZM13.8575 28L11.9342 28.5483C12.1791 29.4075 12.9641 30 13.8575 30V28ZM18.1439 28H13.8575V30H18.1439V28ZM18.1439 28L18.1439 28V30C19.0372 30 19.8222 29.4076 20.0672 28.5485L18.1439 28ZM18.7599 25.84L18.1439 28L20.0672 28.5485L20.6832 26.3884L18.7599 25.84ZM22.4975 23.4276C21.5894 24.1772 20.5408 24.7684 19.3915 25.1702L20.0516 27.0582C21.4205 26.5795 22.6773 25.8726 23.7707 24.97L22.4975 23.4276ZM25.6227 23.7934L23.378 23.229L22.8903 25.1686L25.135 25.733L25.6227 23.7934ZM25.6227 23.7934L25.6227 23.7934L25.135 25.733C25.9938 25.9489 26.8923 25.5744 27.3436 24.8125L25.6227 23.7934ZM16 12C18.2116 12 20 13.7905 20 16H22C22 12.6867 19.3169 10 16 10V12ZM12 16C12 13.791 13.7921 12 16 12V10C12.6879 10 10 12.6861 10 16H12ZM16 20C13.7921 20 12 18.209 12 16H10C10 19.3139 12.6879 22 16 22V20ZM20 16C20 18.2095 18.2116 20 16 20V22C19.3169 22 22 19.3133 22 16H20Z" fill="black"/>
</svg>
