<svg width="32" height="32" viewBox="0 0 32 32" fill="none" xmlns="http://www.w3.org/2000/svg">
<path fill-rule="evenodd" clip-rule="evenodd" d="M25.3788 24.7632C25.8082 24.8712 26.2575 24.6839 26.4831 24.3029L28.603 20.7232C28.8364 20.3291 28.7722 19.8267 28.4472 19.504L26.8491 17.9173C26.9647 17.2936 27.0347 16.6547 27.0347 15.9994C27.0347 15.344 26.9647 14.7051 26.8491 14.0814L28.4462 12.4947C28.7711 12.172 28.8352 11.6698 28.6019 11.2757L26.4818 7.69581C26.2562 7.31484 25.8069 7.12758 25.3775 7.23555L23.1328 7.79996C22.1333 6.97382 20.9806 6.3248 19.7215 5.8858L19.1055 3.72576C18.983 3.29622 18.5905 3 18.1439 3H13.8575C13.4108 3 13.0183 3.29627 12.8958 3.72587L12.2798 5.88706C11.0233 6.32607 9.87059 6.97509 8.87369 7.80123L6.62226 7.23541C6.19296 7.12752 5.74382 7.3147 5.51819 7.69552L3.39705 11.2757C3.16358 11.6697 3.22767 12.172 3.5526 12.4948L5.15217 14.0839C5.03664 14.7064 4.96785 15.3453 4.96785 15.9994C4.96785 16.6547 5.03664 17.2936 5.15217 17.9161L3.55267 19.5051C3.22771 19.8279 3.16364 20.3303 3.39717 20.7243L5.51828 24.3035C5.74387 24.6842 6.19282 24.8713 6.62201 24.7636L8.87239 24.1988C9.87059 25.0236 11.0233 25.6727 12.2798 26.1129L12.8958 28.2741C13.0183 28.7037 13.4108 29 13.8575 29H18.1439C18.5905 29 18.983 28.7038 19.1055 28.2742L19.7215 26.1142C20.9806 25.6739 22.1333 25.0249 23.1341 24.1988L25.3788 24.7632Z" stroke="#B3B3B3" stroke-width="2"/>
<path fill-rule="evenodd" clip-rule="evenodd" d="M20 16C20 13.7909 18.2114 12 16 12C13.792 12 12 13.7909 12 16C12 18.2091 13.792 20 16 20C18.2114 20 20 18.2091 20 16Z" stroke="#B3B3B3" stroke-width="2"/>
</svg>
