<svg width="32" height="32" viewBox="0 0 32 32" fill="none" xmlns="http://www.w3.org/2000/svg">
<path d="M16.1061 16.2203V11.0322C16.1061 10.977 16.0613 10.9322 16.0061 10.9322H10.6958C10.6057 10.9322 10.5616 10.8224 10.6266 10.76L18.6543 3.06631C18.693 3.02924 18.754 3.02924 18.7927 3.06631L26.8203 10.76C26.8854 10.8224 26.8413 10.9322 26.7511 10.9322H21.6531C21.5978 10.9322 21.5531 10.977 21.5531 11.0322V16.2203H16.1061V20.9678C16.1061 21.023 16.1509 21.0678 16.2061 21.0678H21.3042C21.3943 21.0678 21.4384 21.1776 21.3734 21.24L13.3457 28.9337C13.307 28.9708 13.246 28.9708 13.2073 28.9337L5.17967 21.24C5.11461 21.1776 5.15875 21.0678 5.24886 21.0678H10.3469C10.4022 21.0678 10.4469 21.023 10.4469 20.9678V16.2203H16.1061Z" fill="black"/>
<path d="M21.5531 16.2203V11.0322C21.5531 10.977 21.5978 10.9322 21.6531 10.9322H26.7511C26.8413 10.9322 26.8854 10.8224 26.8203 10.76L18.7927 3.06631C18.754 3.02924 18.693 3.02924 18.6543 3.06631L10.6266 10.76C10.5616 10.8224 10.6057 10.9322 10.6958 10.9322H16.0061C16.0613 10.9322 16.1061 10.977 16.1061 11.0322V20.9678C16.1061 21.023 16.1509 21.0678 16.2061 21.0678H21.3042C21.3943 21.0678 21.4384 21.1776 21.3734 21.24L13.3457 28.9337C13.307 28.9708 13.246 28.9708 13.2073 28.9337L5.17967 21.24C5.11461 21.1776 5.15875 21.0678 5.24886 21.0678H10.3469C10.4022 21.0678 10.4469 21.023 10.4469 20.9678V16.2203H21.5531Z" stroke="black" stroke-width="2"/>
</svg>
